<svg width="34" height="30" viewBox="0 0 34 30" fill="none" xmlns="http://www.w3.org/2000/svg">
<path d="M9.25333 16.6667L10.665 13.1417L12.0733 16.6667H9.25333ZM23.3333 15H25V18.3333H23.3333C22.8913 18.3333 22.4674 18.1577 22.1548 17.8452C21.8423 17.5326 21.6667 17.1087 21.6667 16.6667C21.6667 16.2246 21.8423 15.8007 22.1548 15.4882C22.4674 15.1756 22.8913 15 23.3333 15ZM31.6667 0H1.66667C1.22464 0 0.800716 0.175595 0.488155 0.488155C0.175595 0.800716 0 1.22464 0 1.66667V28.3333C0 28.7754 0.175595 29.1993 0.488155 29.5118C0.800716 29.8244 1.22464 30 1.66667 30H31.6667C32.1087 30 32.5326 29.8244 32.8452 29.5118C33.1577 29.1993 33.3333 28.7754 33.3333 28.3333V1.66667C33.3333 1.22464 33.1577 0.800716 32.8452 0.488155C32.5326 0.175595 32.1087 0 31.6667 0ZM17.6633 21.6667H14.0717L13.405 20H7.92167L7.255 21.6667H3.665L5.66333 16.67L5.665 16.6667L8.99833 8.33333H12.3317L17.6633 21.6667ZM25 8.33333H28.3333V21.6667H23.3333C22.0072 21.6667 20.7355 21.1399 19.7978 20.2022C18.8601 19.2645 18.3333 17.9927 18.3333 16.6667C18.3333 15.3406 18.8601 14.0688 19.7978 13.1311C20.7355 12.1934 22.0072 11.6667 23.3333 11.6667H25V8.33333Z" fill="black"/>
</svg>
