<svg width="59" height="58" viewBox="0 0 59 58" fill="none" xmlns="http://www.w3.org/2000/svg">
<path fill-rule="evenodd" clip-rule="evenodd" d="M13.3333 12.6667C13.3333 9.30726 14.6679 6.08544 17.0433 3.70998C19.4188 1.33452 22.6406 0 26 0C29.3594 0 32.5812 1.33452 34.9567 3.70998C37.3321 6.08544 38.6667 9.30726 38.6667 12.6667C38.6667 16.0261 37.3321 19.2479 34.9567 21.6234C32.5812 23.9988 29.3594 25.3333 26 25.3333C22.6406 25.3333 19.4188 23.9988 17.0433 21.6234C14.6679 19.2479 13.3333 16.0261 13.3333 12.6667ZM1.37067 35.536C9.09151 31.233 17.8313 29.0955 26.6667 29.3493V48H0V36.296L1.37067 35.536ZM30.6667 49.3333V29.3333H58.6667V49.3333L44.6667 57.3333L30.6667 49.3333Z" fill="#003DB8"/>
</svg>
