<svg width="52" height="52" viewBox="0 0 52 52" fill="none" xmlns="http://www.w3.org/2000/svg">
<path d="M26 50C26.3557 50 26.7096 49.9899 27.0615 49.9746C26.7086 49.9902 26.3548 50 26 50ZM26 50C25.6439 50 25.2898 49.99 24.9375 49.9746C25.2907 49.9903 25.6449 50 26 50ZM8.61133 9.45801C4.64832 13.6236 2.31617 19.0696 2.0293 24.7988C2.32189 18.8619 4.77195 13.4927 8.61133 9.45801ZM8.61133 9.45801L8.61328 9.45605L8.62695 9.44141C8.62171 9.44691 8.61657 9.4525 8.61133 9.45801ZM26 2C26.3557 2 26.7096 2.0091 27.0615 2.02441C26.7086 2.0088 26.3547 2 26 2ZM26 2C25.6449 2 25.2907 2.00877 24.9375 2.02441C25.2898 2.00907 25.6439 2 26 2ZM9.45801 43.3877C13.6237 47.351 19.0694 49.6828 24.7988 49.9697C18.8617 49.6771 13.4927 47.2273 9.45801 43.3877ZM49.9717 27.1758C49.3778 39.4873 39.5085 49.3636 27.2002 49.9697C33.1284 49.6731 38.7535 47.1879 42.9707 42.9707C47.1937 38.7477 49.6807 33.1129 49.9717 27.1758ZM8.23438 42.1377C4.60639 38.1461 2.30569 32.9263 2.02832 27.1758C2.30961 32.9152 4.64326 38.3719 8.61328 42.5439L8.23438 42.1377ZM26 22C27.0609 22 28.078 22.4217 28.8281 23.1719C29.5783 23.922 30 24.9391 30 26C30 27.0609 29.5783 28.078 28.8281 28.8281C28.078 29.5783 27.0609 30 26 30C24.9391 30 23.922 29.5783 23.1719 28.8281C22.4217 28.078 22 27.0609 22 26C22 24.9391 22.4217 23.922 23.1719 23.1719C23.922 22.4217 24.9391 22 26 22ZM2.00781 26.5957C2.01109 26.728 2.017 26.8601 2.02246 26.9922C2.01741 26.868 2.01097 26.7438 2.00781 26.6191V26.5957ZM49.9922 26.6191C49.989 26.7438 49.9826 26.868 49.9775 26.9922C49.983 26.8601 49.9889 26.728 49.9922 26.5957V26.6191ZM2.02832 24.8369C2.00958 25.2234 2 25.6112 2 26C2 25.6101 2.00993 25.2223 2.02832 24.8369ZM49.9717 24.8369C49.9901 25.2223 50 25.6101 50 26C50 25.6112 49.9904 25.2234 49.9717 24.8369ZM27.2002 2.0293C39.5 2.63497 49.3635 12.4991 49.9697 24.7988C49.6729 18.871 47.1876 13.2462 42.9707 9.0293C38.7535 4.81212 33.1284 2.32589 27.2002 2.0293ZM9.45508 8.61328C13.49 4.77253 18.8607 2.32195 24.7988 2.0293C19.0687 2.31621 13.6219 4.64912 9.45605 8.61328H9.45508Z" fill="#003DB8" stroke="#003DB8" stroke-width="4"/>
</svg>
