<svg width="48" height="48" viewBox="0 0 48 48" fill="none" xmlns="http://www.w3.org/2000/svg">
<rect width="48" height="48" rx="24" fill="black"/>
<g clip-path="url(#clip0_159_67)">
<path fill-rule="evenodd" clip-rule="evenodd" d="M23.9958 12.6001C21.1648 12.6016 18.4266 13.6043 16.2709 15.4289C14.1151 17.2535 12.6824 19.7811 12.2289 22.5597C11.7754 25.3382 12.3306 28.1866 13.7954 30.5954C15.2602 33.0043 17.5389 34.8166 20.2241 35.7082C20.8166 35.8181 21.0397 35.451 21.0397 35.1388C21.0397 34.8266 21.0278 33.9214 21.0239 32.9318C17.7064 33.6485 17.0054 31.5319 17.0054 31.5319C16.4643 30.1575 15.6823 29.7962 15.6823 29.7962C14.6002 29.0618 15.7633 29.0756 15.7633 29.0756C16.9619 29.16 17.5919 30.2988 17.5919 30.2988C18.6543 32.1111 20.3821 31.5869 21.0614 31.2806C21.1681 30.5128 21.4781 29.9906 21.8197 29.6941C19.1697 29.3956 16.3853 28.3785 16.3853 23.8351C16.3689 22.6568 16.8087 21.5172 17.6136 20.6523C17.4912 20.3538 17.0824 19.1483 17.7301 17.5107C17.7301 17.5107 18.7313 17.1927 21.0101 18.7261C22.9647 18.1946 25.027 18.1946 26.9816 18.7261C29.2584 17.1927 30.2576 17.5107 30.2576 17.5107C30.9073 19.1443 30.4985 20.3499 30.3761 20.6523C31.1836 21.5174 31.6243 22.6589 31.6063 23.839C31.6063 28.3923 28.8161 29.3956 26.1621 29.6882C26.5886 30.0573 26.9697 30.7779 26.9697 31.8853C26.9697 33.4718 26.9559 34.748 26.9559 35.1388C26.9559 35.4549 27.1711 35.824 27.7754 35.7082C30.461 34.8165 32.7399 33.0039 34.2047 30.5946C35.6694 28.1853 36.2244 25.3365 35.7703 22.5577C35.3163 19.7789 33.8829 17.2513 31.7264 15.427C29.57 13.6027 26.8311 12.6006 23.9998 12.6001H23.9958Z" fill="white"/>
<path d="M16.5864 29.6255C16.5608 29.6844 16.466 29.7021 16.389 29.6608C16.3119 29.6196 16.2547 29.543 16.2823 29.4822C16.31 29.4213 16.4028 29.4056 16.4798 29.4468C16.5568 29.488 16.6161 29.5666 16.5864 29.6255Z" fill="white"/>
<path d="M17.0703 30.1613C17.0294 30.1818 16.9826 30.1875 16.9379 30.1774C16.8933 30.1674 16.8535 30.1423 16.8254 30.1063C16.7484 30.0238 16.7326 29.9099 16.7918 29.8589C16.8511 29.8078 16.9577 29.8314 17.0347 29.9139C17.1117 29.9963 17.1295 30.1102 17.0703 30.1613Z" fill="white"/>
<path d="M17.5403 30.8425C17.4672 30.8936 17.3428 30.8425 17.2737 30.7404C17.2546 30.7221 17.2394 30.7002 17.229 30.6759C17.2186 30.6516 17.2133 30.6255 17.2133 30.5991C17.2133 30.5727 17.2186 30.5465 17.229 30.5223C17.2394 30.498 17.2546 30.476 17.2737 30.4577C17.3468 30.4086 17.4712 30.4577 17.5403 30.5578C17.6094 30.658 17.6114 30.7915 17.5403 30.8425Z" fill="white"/>
<path d="M18.1781 31.5022C18.1129 31.5748 17.9806 31.5552 17.872 31.457C17.7634 31.3589 17.7377 31.2253 17.8029 31.1547C17.8681 31.084 18.0004 31.1036 18.1129 31.1998C18.2255 31.296 18.2472 31.4315 18.1781 31.5022Z" fill="white"/>
<path d="M19.0726 31.8872C19.043 31.9795 18.9087 32.0207 18.7744 31.9815C18.6401 31.9422 18.5513 31.8322 18.5769 31.738C18.6026 31.6438 18.7389 31.6006 18.8751 31.6438C19.0114 31.6869 19.0983 31.791 19.0726 31.8872Z" fill="black"/>
<path d="M20.0482 31.9541C20.0482 32.0503 19.9376 32.1327 19.7954 32.1347C19.6533 32.1367 19.5367 32.0581 19.5367 31.9619C19.5367 31.8657 19.6473 31.7833 19.7895 31.7813C19.9317 31.7793 20.0482 31.8559 20.0482 31.9541Z" fill="black"/>
<path d="M20.9565 31.803C20.9743 31.8992 20.8756 31.9994 20.7334 32.0229C20.5912 32.0465 20.4668 31.9896 20.449 31.8953C20.4313 31.8011 20.5339 31.699 20.6722 31.6734C20.8104 31.6479 20.9388 31.7068 20.9565 31.803Z" fill="black"/>
</g>
<defs>
<clipPath id="clip0_159_67">
<rect width="24" height="24" fill="white" transform="translate(12 12)"/>
</clipPath>
</defs>
</svg>
