<svg width="17" height="30" viewBox="0 0 17 30" fill="none" xmlns="http://www.w3.org/2000/svg">
<path d="M0 20H3.33333C3.33333 21.8 5.61667 23.3333 8.33333 23.3333C11.05 23.3333 13.3333 21.8 13.3333 20C13.3333 18.1667 11.6 17.5 7.93333 16.6167C4.4 15.7333 0 14.6333 0 10C0 7.01667 2.45 4.48333 5.83333 3.63333V0H10.8333V3.63333C14.2167 4.48333 16.6667 7.01667 16.6667 10H13.3333C13.3333 8.2 11.05 6.66667 8.33333 6.66667C5.61667 6.66667 3.33333 8.2 3.33333 10C3.33333 11.8333 5.06667 12.5 8.73333 13.3833C12.2667 14.2667 16.6667 15.3667 16.6667 20C16.6667 22.9833 14.2167 25.5167 10.8333 26.3667V30H5.83333V26.3667C2.45 25.5167 0 22.9833 0 20Z" fill="#008000"/>
</svg>
