<svg width="34" height="34" viewBox="0 0 34 34" fill="none" xmlns="http://www.w3.org/2000/svg">
<path d="M16.6667 0C7.47667 0 0 7.47667 0 16.6667V23.5717C0 25.2783 1.495 26.6667 3.33333 26.6667H5C5.44203 26.6667 5.86595 26.4911 6.17851 26.1785C6.49107 25.866 6.66667 25.442 6.66667 25V16.4283C6.66667 15.9863 6.49107 15.5624 6.17851 15.2498C5.86595 14.9373 5.44203 14.7617 5 14.7617H3.48667C4.41333 8.31167 9.96333 3.33333 16.6667 3.33333C23.37 3.33333 28.92 8.31167 29.8467 14.7617H28.3333C27.8913 14.7617 27.4674 14.9373 27.1548 15.2498C26.8423 15.5624 26.6667 15.9863 26.6667 16.4283V26.6667C26.6667 28.505 25.1717 30 23.3333 30H20V28.3333H13.3333V33.3333H23.3333C27.01 33.3333 30 30.3433 30 26.6667C31.8383 26.6667 33.3333 25.2783 33.3333 23.5717V16.6667C33.3333 7.47667 25.8567 0 16.6667 0Z" fill="#FAA61A"/>
</svg>
