<svg width="40" height="40" viewBox="0 0 40 40" fill="none" xmlns="http://www.w3.org/2000/svg">
<path d="M17.783 21.7001C17.4163 21.6834 17.0497 21.6667 16.6663 21.6667C12.633 21.6667 8.86634 22.7834 5.64967 24.7001C4.18301 25.5667 3.33301 27.2001 3.33301 28.9167V33.3334H18.7663C17.5887 31.6544 16.8772 29.6931 16.7045 27.6495C16.5317 25.6059 16.9039 23.553 17.783 21.7001Z" fill="#902090"/>
<path d="M16.6667 20.0001C20.3486 20.0001 23.3333 17.0153 23.3333 13.3334C23.3333 9.65152 20.3486 6.66675 16.6667 6.66675C12.9848 6.66675 10 9.65152 10 13.3334C10 17.0153 12.9848 20.0001 16.6667 20.0001Z" fill="#902090"/>
<path d="M34.5832 26.6666C34.5832 26.2999 34.5332 25.9666 34.4832 25.6166L36.3832 23.9333L34.7165 21.0499L32.2999 21.8666C31.7665 21.4166 31.1665 21.0666 30.4999 20.8166L29.9999 18.3333H26.6665L26.1665 20.8166C25.4999 21.0666 24.8999 21.4166 24.3665 21.8666L21.9499 21.0499L20.2832 23.9333L22.1832 25.6166C22.1332 25.9666 22.0832 26.2999 22.0832 26.6666C22.0832 27.0333 22.1332 27.3666 22.1832 27.7166L20.2832 29.3999L21.9499 32.2833L24.3665 31.4666C24.8999 31.9166 25.4999 32.2666 26.1665 32.5166L26.6665 34.9999H29.9999L30.4999 32.5166C31.1665 32.2666 31.7665 31.9166 32.2999 31.4666L34.7165 32.2833L36.3832 29.3999L34.4832 27.7166C34.5332 27.3666 34.5832 27.0333 34.5832 26.6666ZM28.3332 29.9999C26.4999 29.9999 24.9999 28.4999 24.9999 26.6666C24.9999 24.8333 26.4999 23.3333 28.3332 23.3333C30.1665 23.3333 31.6665 24.8333 31.6665 26.6666C31.6665 28.4999 30.1665 29.9999 28.3332 29.9999Z" fill="#902090"/>
</svg>
