<svg width="20" height="14" viewBox="0 0 20 14" fill="none" xmlns="http://www.w3.org/2000/svg">
<path d="M3.25 0.5H16.75C17.1111 0.5 17.4691 0.570784 17.8027 0.708984C18.1363 0.847183 18.439 1.05035 18.6943 1.30566C18.9497 1.56098 19.1528 1.86369 19.291 2.19727C19.4292 2.53091 19.5 2.88886 19.5 3.25V10.75C19.5 11.1111 19.4292 11.4691 19.291 11.8027C19.1528 12.1363 18.9497 12.439 18.6943 12.6943C18.439 12.9497 18.1363 13.1528 17.8027 13.291C17.4691 13.4292 17.1111 13.5 16.75 13.5H3.25C2.52065 13.5 1.82139 13.2101 1.30566 12.6943C0.789939 12.1786 0.5 11.4793 0.5 10.75V3.25C0.5 2.52065 0.789939 1.82139 1.30566 1.30566C1.82139 0.789939 2.52065 0.5 3.25 0.5ZM1 10.75C1 11.9921 2.00786 13 3.25 13H16.75C17.3467 13 17.9189 12.7628 18.3408 12.3408C18.7628 11.9189 19 11.3467 19 10.75V5.5H1V10.75ZM13.75 10H16.25C16.3163 10 16.3799 10.0264 16.4268 10.0732C16.4736 10.1201 16.5 10.1837 16.5 10.25C16.5 10.3163 16.4736 10.3799 16.4268 10.4268C16.3799 10.4736 16.3163 10.5 16.25 10.5H13.75C13.6837 10.5 13.6201 10.4736 13.5732 10.4268C13.5264 10.3799 13.5 10.3163 13.5 10.25C13.5 10.1837 13.5264 10.1201 13.5732 10.0732C13.6201 10.0264 13.6837 10 13.75 10ZM3.25 1C2.65326 1 2.08114 1.23722 1.65918 1.65918C1.23722 2.08114 1 2.65326 1 3.25V5H19V3.25C19 2.65326 18.7628 2.08114 18.3408 1.65918C17.9189 1.23722 17.3467 1 16.75 1H3.25Z" fill="#4A5565" stroke="black"/>
</svg>
